; NON-PLATED HOLES START AT T1
; THROUGH (PLATED) HOLES START AT T100
M48
INCH
T1C0.125984
T2C0.086614
T100C0.062992
T101C0.036000
T102C0.088356
T103C0.035000
T104C0.125984
T105C0.236220
T106C0.041361
T107C0.042000
T108C0.039370
T109C0.035433
T110C0.030000
T111C0.015748
T112C0.041333
%
T1
X022986Y035077
X027253Y034165
X054304Y045363
X040127Y042977
X073804Y001613
X060304Y024613
X072304Y035113
X041871Y005547
X060304Y035113
X079597Y045165
X007292Y024578
X023075Y024602
X001304Y053613
X100732Y005599
X045304Y045363
X030304Y053613
X048304Y035113
X003634Y043880
X050729Y027734
X100747Y035064
X085091Y035112
X064858Y035893
X072304Y024613
X100836Y024590
X085053Y024565
X036304Y035113
X036304Y024613
X106804Y053613
X072804Y015206
X063304Y045363
X093013Y014092
X066871Y005547
X048304Y024613
X085063Y005562
X104887Y034150
X023043Y045376
X034804Y001613
X007317Y045318
X015209Y013787
X085078Y045305
X007302Y005574
X001304Y001613
X106804Y001613
X054545Y015274
X036304Y045363
X054621Y005547
X072304Y045363
X100805Y045363
X022971Y005611
X007330Y035124
X035726Y015285
T2
X001623Y003291
X001606Y004594
T100
X094548Y052428
X056547Y052489
X092804Y000863
X052747Y051225
X091797Y051370
X093811Y003606
X012986Y051177
X091061Y002549
X056344Y049672
X091264Y005365
X015043Y000876
X013503Y005377
X014036Y051383
X092804Y054113
X094344Y049611
X094861Y003812
X054804Y054174
X016787Y052440
X053797Y051431
X016583Y049624
X017100Y003824
X013300Y002561
X090747Y051165
X015043Y054126
X016050Y003618
T101
X066054Y053613
X070054Y053613
X067054Y047613
X060054Y047613
X063054Y047613
X061054Y047613
X062054Y053613
X071054Y053613
X061054Y053613
X064054Y053613
X070054Y047613
X064054Y047613
X062054Y047613
X069054Y047613
X068054Y047613
X067054Y053613
X065054Y053613
X072054Y053613
X072054Y047613
X059054Y047613
X063054Y053613
X071054Y047613
X073054Y047613
X068054Y053613
X059054Y053613
X069054Y053613
X060054Y053613
X073054Y053613
X066054Y047613
X065054Y047613
T102
X085101Y037054
X043745Y005566
X098862Y024566
X043362Y045316
X046362Y035066
X022996Y037067
X005351Y024578
X007340Y033184
X047245Y045316
X100757Y043422
X102746Y005566
X086995Y024566
X062245Y035066
X070362Y045316
X038245Y045316
X098862Y005566
X046362Y024566
X070362Y035066
X052362Y045316
X021101Y005578
X024984Y024578
X083112Y005566
X074245Y035066
X039862Y005566
X100757Y047305
X022996Y047317
X038245Y024566
X085101Y047305
X007340Y037067
X050245Y024566
X038245Y035066
X100757Y033172
X024984Y005578
X050245Y035066
X070363Y024566
X007340Y043434
X058362Y035066
X085101Y033171
X005351Y005578
X009234Y005578
X061362Y045316
X034362Y045316
X009234Y024578
X007340Y047317
X021101Y024578
X100757Y037055
X085101Y043422
X074246Y024566
X086995Y005566
X062245Y024566
X056245Y045316
X022996Y043434
X068745Y005566
X034362Y035066
X065245Y045316
X056495Y005566
X034362Y024566
X022996Y033184
X083112Y024566
X052612Y005566
X064862Y005566
X102746Y024566
X058362Y024566
X074245Y045316
T103
X047804Y002613
X017543Y007626
X091304Y039863
X011043Y053626
X013543Y041876
X045304Y034113
X037804Y052113
X068804Y028613
X066804Y015863
X003793Y031626
X013543Y027376
X019688Y031603
X079304Y008863
X043054Y039363
X045804Y005613
X016543Y048126
X041554Y008113
X082804Y031613
X048304Y020613
X084054Y041363
X098952Y049074
X088143Y028437
X027793Y027376
X043804Y008113
X051304Y022613
X097304Y053613
X020293Y014876
X107074Y019194
X071804Y028613
X062304Y006113
X023543Y039126
X013543Y039876
X098805Y026863
X105805Y022113
X019543Y050626
X082804Y034613
X011793Y048126
X062304Y008113
X098304Y022863
X049286Y009333
X096304Y022863
X104305Y025113
X040054Y036363
X001554Y014863
X023543Y040126
X070304Y005613
X084054Y039363
X091304Y040863
X088443Y026467
X104108Y053183
X036304Y041363
X090304Y022363
X013543Y048126
X098304Y039363
X094304Y027363
X088554Y021863
X028054Y003863
X020543Y022876
X080554Y028363
X062304Y005113
X037304Y006863
X101305Y039113
X096554Y035363
X094804Y030363
X066804Y010863
X091304Y028363
X084862Y008368
X094804Y033363
X044804Y052113
X013543Y023376
X098304Y007613
X099805Y026863
X081054Y040363
X003793Y053626
X041804Y016363
X088554Y022863
X079804Y003863
X020419Y028694
X057304Y025613
X016543Y023376
X050554Y020863
X084054Y040363
X097449Y031591
X091304Y007613
X016543Y047126
X006838Y008347
X105805Y009113
X009293Y042376
X013543Y045126
X045554Y026363
X003293Y040376
X010793Y022876
X057804Y005363
X028043Y025126
X029054Y000863
X043554Y026363
X063804Y034113
X054554Y034613
X044054Y039363
X002793Y028376
X102555Y027363
X013543Y024376
X048817Y044750
X020543Y007626
X028793Y041126
X013543Y022376
X009293Y009119
X028043Y005626
X045554Y029613
X013543Y047126
X016543Y036626
X101305Y040113
X104305Y041113
X086054Y039363
X044054Y031113
X104305Y022113
X037804Y051113
X018543Y022876
X084054Y038363
X090144Y009124
X039054Y031113
X016543Y040876
X027793Y030376
X012185Y049086
X094304Y009613
X076804Y039113
X022543Y027876
X013543Y007626
X101305Y027363
X006293Y039376
X104305Y040113
X013543Y028376
X057804Y002363
X065054Y025613
X041804Y034113
X026543Y039126
X091304Y009613
X094304Y021363
X081554Y034613
X001293Y038376
X094304Y023363
X022043Y026876
X088554Y020863
X013543Y026376
X076804Y038113
X003793Y022126
X051554Y046613
X037804Y049113
X020043Y026876
X099304Y039363
X087144Y009124
X046804Y002613
X025084Y008183
X003793Y050626
X067804Y020863
X055804Y034613
X098304Y009113
X014293Y044126
X037804Y050113
X091304Y025363
X081862Y008368
X078804Y000863
X041804Y052113
X002793Y030376
X018034Y049086
X053791Y009104
X046286Y009333
X016543Y039876
X059304Y008113
X044054Y034113
X066304Y031113
X016543Y025376
X042304Y025613
X053304Y034613
X102714Y008335
X094304Y045113
X034304Y007863
X024793Y029376
X056304Y025613
X039304Y044863
X016543Y024376
X057054Y031613
X006293Y038376
X029304Y013863
X038554Y029613
X105555Y028363
X073804Y038113
X094304Y006613
X013543Y037626
X020543Y039376
X088054Y024113
X026543Y040126
X083554Y028363
X055304Y020863
X046804Y005613
X012543Y022376
X050554Y011613
X010793Y020876
X012293Y007626
X105555Y030363
X031554Y046863
X052304Y022613
X064054Y022613
X055804Y031613
X065054Y034113
X029304Y016863
X011057Y031372
X003838Y008347
X094304Y036613
X062304Y041113
X005793Y029376
X088804Y053613
X023543Y038126
X091304Y038863
X013543Y046126
X028793Y038126
X051304Y005613
X034304Y006863
X094304Y007613
X091304Y008613
X051304Y025613
X098180Y028681
X097804Y024363
X091054Y030363
X091304Y041863
X023543Y041126
X040804Y051113
X053554Y020863
X036804Y052113
X029054Y003863
X090054Y007613
X065054Y031113
X045304Y031113
X059304Y005113
X081054Y041363
X014293Y015876
X079304Y005863
X013543Y009626
X086554Y048113
X090625Y014654
X010293Y024126
X054554Y031613
X026543Y038126
X080554Y030363
X016543Y021376
X040304Y025613
X081554Y031613
X050554Y014613
X086054Y028613
X019543Y053626
X003293Y041376
X044804Y051113
X088804Y050613
X102555Y028363
X087054Y039363
X017043Y033376
X065554Y008863
X009862Y027052
X100305Y030863
X094304Y040863
X041554Y029613
X105805Y025113
X097304Y022863
X013543Y021376
X098054Y014863
X027793Y029376
X009185Y049086
X040804Y049113
X099714Y008335
X051554Y014613
X022084Y008183
X045304Y041363
X102555Y029363
X059054Y009613
X008293Y039376
X001543Y005876
X028043Y022126
X098304Y042363
X099304Y042363
X105555Y027363
X003293Y039376
X091304Y026363
X024793Y030376
X063804Y031113
X049554Y011613
X094304Y047113
X016543Y028376
X042804Y034113
X011543Y035376
X041304Y025613
X091304Y045113
X003793Y025126
X001240Y046436
X015793Y018876
X053835Y008148
X020043Y024376
X080668Y050613
X104055Y043613
X057804Y006613
X026293Y050626
X089304Y032363
X091054Y033363
X101305Y030363
X097805Y026863
X036304Y020613
X007043Y027376
X051554Y011613
X018579Y043014
X100305Y027863
X018543Y048126
X091304Y036613
X080304Y014863
X090175Y026234
X041804Y031113
X021543Y048126
X016543Y027376
X065304Y041113
X045304Y037363
X033804Y051113
X022543Y030876
X009293Y039376
X060304Y020613
X026543Y041126
X065554Y007863
X021543Y039376
X027793Y028376
X028043Y008626
X005793Y027376
X016543Y038876
X018793Y032376
X095952Y049074
X094304Y041863
X079054Y038363
X008293Y028626
X017422Y025835
X084804Y030363
X016543Y041876
X097304Y050613
X026543Y022126
X002793Y027376
X037304Y027613
X013293Y033376
X014293Y018876
X037304Y007863
X104108Y050183
X008293Y031626
X041304Y022613
X016543Y026376
X010793Y021876
X090304Y023363
X080668Y053613
X093554Y015863
X081054Y039363
X107074Y016194
X091304Y027363
X005043Y031626
X016543Y045126
X011543Y032376
X094304Y038863
X083554Y029363
X050554Y046613
X081554Y025113
X079804Y000863
X066304Y034113
X020543Y042376
X083554Y027363
X010054Y014863
X016543Y006626
X006293Y041376
X092054Y018863
X073804Y037058
X026293Y046626
X013543Y040876
X004554Y014863
X032554Y046863
X017043Y030376
X081554Y046863
X094304Y025363
X064054Y025613
X016543Y046126
X040304Y022613
X012543Y023376
X001293Y041376
X089239Y043078
X084804Y027363
X028054Y000863
X023543Y027376
X013543Y036626
X013293Y030376
X006293Y040376
X094304Y048113
X039304Y020613
X058054Y030613
X104305Y038113
X040804Y052113
X040054Y039363
X063304Y005113
X106555Y041113
X096304Y048113
X059054Y012613
X050804Y030613
X094304Y037613
X018793Y035376
X049554Y014613
X040804Y050113
X005793Y030376
X009293Y007626
X067554Y031113
X047804Y030613
X083304Y014863
X091304Y024363
X042804Y008113
X036304Y027613
X063304Y020613
X058304Y020863
X091304Y046113
X068554Y007863
X087625Y014654
X038304Y027613
X001240Y043435
X091304Y047113
X045804Y002613
X042804Y031113
X020543Y009126
X002293Y022126
X088818Y031360
X065054Y022613
X007043Y030376
X087054Y007613
X024793Y027376
X086054Y031613
X039304Y047863
X066804Y018863
X089554Y048113
X094304Y039863
X044804Y008113
X042554Y029613
X094304Y024363
X101305Y038113
X096340Y043001
X095183Y025822
X012414Y026247
X010382Y028449
X017293Y014876
X017543Y009126
X083554Y030363
X067554Y034113
X021043Y026876
X043054Y038363
X080554Y027363
X096554Y032363
X008793Y048126
X011478Y043090
X008293Y042376
X047804Y005613
X034304Y008863
X002293Y025126
X080054Y025113
X032554Y043863
X016543Y008626
X057304Y022613
X080554Y029363
X042304Y041363
X005793Y028376
X053304Y031613
X038554Y028613
X059304Y006113
X040054Y038363
X039304Y041363
X026543Y025126
X081554Y022113
X052304Y025613
X059304Y007113
X009043Y027626
X026293Y043626
X050835Y008148
X093554Y044113
X072304Y020613
X067804Y023863
X094304Y046113
X069304Y020613
X104055Y046613
X021034Y049086
X019543Y022876
X013543Y006626
X079054Y041363
X048304Y037363
X051304Y002613
X062304Y007113
X042304Y022613
X041804Y019363
X024793Y028376
X033804Y052113
X094304Y028363
X011043Y050626
X013543Y008626
X091304Y021363
X041804Y051113
X099304Y048113
X045304Y020613
X013543Y025376
X080054Y022113
X036804Y051113
X040804Y044863
X078804Y003863
X043054Y036363
X106555Y038113
X105805Y006113
X003293Y038376
X091304Y006613
X094304Y008613
X056304Y022613
X091304Y048113
X031554Y043863
X087054Y042363
X093554Y018863
X095054Y014863
X092054Y015863
X016543Y037626
X047054Y039363
X095304Y009113
X092054Y044113
X070304Y008613
X036054Y031113
X094304Y022363
X001543Y008876
X015793Y044126
X086946Y049074
X073804Y039113
X095304Y007613
X026293Y053626
X002793Y029376
X043054Y037363
X003793Y034626
X057804Y009613
X063304Y008113
X089946Y049074
X066804Y013863
X081054Y038363
X040054Y037363
X038554Y008113
X069804Y041113
X068554Y008863
X013543Y038876
X105555Y029363
X021543Y042376
X089304Y035363
X102555Y030363
X016543Y009626
X005043Y034626
X076804Y037058
X050791Y009104
X091304Y022363
X086804Y027613
X072804Y041113
X049791Y044976
X010682Y026479
X037304Y008863
X057054Y034613
X040804Y047863
X087624Y027040
X044554Y026363
X023543Y030376
X013054Y014863
X091304Y037613
X086054Y042363
X094304Y026363
X091304Y023363
X041554Y028613
X015793Y015876
X101305Y041113
X081554Y043863
X016543Y022376
X016543Y007626
X104305Y039113
X061054Y030613
X012293Y009119
T104
X049054Y051113
X050828Y052148
X049054Y053613
T105
X007293Y051376
X011050Y017878
X045304Y017863
X057554Y017863
X085054Y051363
X100805Y051363
X045304Y011863
X054554Y011863
X088811Y017865
X096804Y017863
X088801Y011866
X096804Y011863
X070304Y011863
X063304Y011863
X019043Y017876
X038304Y017863
X004043Y017876
X011041Y011866
X038304Y011863
X070304Y017863
X019043Y011876
X026543Y011876
X063304Y017863
X004043Y011876
X026543Y017876
X104305Y011863
X081804Y011863
X081804Y017863
X104305Y017863
X051554Y017863
X023043Y051376
T106
X073304Y021613
X086054Y002613
X061304Y032113
X042804Y002613
X010293Y036126
X097804Y034113
X037304Y032113
X088054Y046363
X073304Y042363
X037304Y021613
X037304Y042363
X010293Y046376
X020043Y034126
X097804Y044363
X064304Y042363
X073304Y032113
X086054Y021613
X008293Y021626
X088054Y036113
X020043Y044376
X008293Y002626
X024043Y021626
X049304Y021613
X055304Y042363
X024043Y002626
X067804Y002613
X055554Y002613
X046304Y042363
X061304Y021613
X049304Y032113
X101805Y021613
X101805Y002613
T107
X046574Y047863
X049554Y047863
T108
X049867Y042763
X048931Y042412
X050804Y043113
T109
X004054Y002863
X002804Y004613
X104554Y004863
X104554Y002863
X004054Y004613
X105804Y004863
X105804Y002863
X002804Y002863
T110
X087304Y002113
X018293Y026876
X099554Y037863
X021293Y032376
X021793Y037876
X012543Y042126
X099054Y032363
X039554Y027363
X053554Y026363
X050054Y003613
X027793Y036126
X009543Y030376
X010543Y037876
X106775Y012993
X093804Y010613
X089804Y029613
X098554Y002113
X084554Y014863
X042804Y048363
X009543Y032376
X096054Y028863
X099054Y030363
X049054Y006863
X025793Y032126
X098304Y021113
X042783Y053367
X087304Y030363
X054804Y026363
X066554Y022613
X078815Y014863
X105555Y036113
X020793Y002126
X017543Y041876
X086304Y037863
X049054Y003613
X090304Y042113
X089054Y040113
X012043Y027626
X089304Y002113
X044804Y048363
X061804Y003613
X034304Y005863
X069054Y032113
X053554Y024363
X036304Y005863
X011543Y002126
X029804Y012613
X047054Y007863
X072968Y009027
X047304Y038363
X008043Y018376
X103555Y036113
X097554Y037863
X089804Y027613
X008543Y037876
X001054Y013363
X045304Y038363
X018793Y002126
X011293Y042126
X016043Y010626
X011293Y040126
X105555Y032113
X097304Y004363
X012043Y029626
X096054Y026863
X093804Y029363
X043554Y028363
X004543Y036376
X009543Y002126
X002543Y036376
X096554Y039863
X042804Y049613
X095554Y036613
X035054Y049863
X066554Y024613
X044554Y022613
X055009Y008099
X014043Y029376
X062054Y009113
X035054Y047863
X047054Y006863
X040783Y053117
X060054Y012613
X024543Y014876
X071554Y007613
X038783Y053117
X019793Y037876
X040304Y031113
X060054Y010613
X041554Y027363
X044783Y053367
X094304Y042863
X097304Y006363
X012543Y040126
X049054Y005613
X104305Y014863
X044804Y049613
X008054Y014863
X018793Y041876
X025793Y036126
X040304Y033113
X090304Y040113
X014043Y010626
X018543Y021126
X017793Y036626
X006054Y014863
X021293Y030376
X060054Y009113
X087304Y032363
X096554Y002113
X010793Y004376
X016043Y029376
X056423Y009514
X096554Y041863
X069054Y030113
X091804Y010613
X014543Y042876
X095304Y039863
X027793Y032126
X096304Y021113
X029804Y010613
X078815Y012863
X102305Y014863
X054304Y048113
X063804Y003613
X001054Y011363
X017793Y038626
X095304Y041863
X018293Y028876
X016543Y042876
X049054Y007863
X085804Y020363
X088554Y006363
X103555Y032113
X050054Y005613
X056304Y048113
X082304Y036363
X045554Y028363
X095554Y038613
X019543Y004376
X020543Y021126
X026543Y014876
X017543Y039876
X106775Y014993
X010793Y006376
X044554Y024613
X086554Y014863
X092304Y042863
X089054Y042113
X008043Y020376
X091804Y029363
X054804Y024363
X019543Y006376
X018793Y039876
X088304Y037863
X080304Y036363
X088554Y004363
X085804Y018363
T111
X047053Y050857
X082165Y049661
X049304Y030363
X074538Y049214
X024293Y006376
X046304Y032363
X100306Y003614
X052054Y038863
X050054Y039613
X042136Y046287
X048054Y028863
X047304Y041363
X070469Y046704
X073759Y046922
X033331Y039461
X038304Y014613
X100304Y016363
X034304Y004613
X037104Y014402
X049804Y049613
X050304Y038613
X093804Y031363
X034804Y029613
X051804Y049613
X085244Y017122
X076174Y047843
X060554Y003863
X061054Y015363
X036617Y048014
X089554Y020363
X006543Y016626
X059804Y015113
X007543Y016626
X050304Y010363
X036304Y030113
X077304Y008863
X032335Y002112
X021793Y017626
X038176Y046919
X034647Y018684
X075842Y040971
X011793Y020376
X034054Y049863
X051554Y034113
X051554Y031863
X036054Y038613
X036054Y037613
X082304Y002113
X042018Y043073
X099554Y017613
X055554Y046363
X007987Y011276
X033804Y038613
X036054Y036613
X102054Y006363
X102296Y003859
X079412Y046800
X048793Y048870
X032554Y030113
X016043Y031376
X034444Y012448
X046554Y027863
X066804Y037613
X022543Y016376
X051804Y039863
X031804Y018613
X031307Y003581
X074527Y039957
X076304Y002613
X036304Y002613
X008041Y007623
X070554Y026613
X085554Y013863
X064277Y046561
X076134Y045571
X035554Y040113
X068804Y025613
T112
X020043Y045376
X054554Y002613
X071304Y021613
X097804Y045363
X062304Y042363
X072304Y021613
X048304Y032113
X020043Y035126
X084054Y021613
X023043Y021625
X022043Y002626
X048304Y021613
X047304Y032113
X088054Y035113
X010293Y034125
X099804Y021613
X007293Y021625
X066804Y002613
X035304Y042363
X053554Y002613
X041804Y002613
X054304Y042363
X071304Y042363
X059304Y021613
X044304Y042363
X047304Y021613
X007293Y002625
X072304Y042363
X071304Y032113
X035304Y032113
X040804Y002613
X035304Y021613
X085054Y002613
X065804Y002613
X063304Y042363
X100804Y021613
X088054Y045363
X020043Y036126
X084054Y002613
X006293Y002626
X045304Y042363
X036304Y042363
X022043Y021626
X088054Y044363
X036304Y032113
X097804Y046363
X097804Y036113
X097804Y035113
X006293Y021626
X023043Y002625
X020043Y046376
X099804Y002613
X059304Y032113
X053304Y042363
X010293Y045375
X085054Y021613
X060304Y021613
X036304Y021613
X010293Y044375
X088054Y034113
X060304Y032113
X010293Y035125
X072304Y032113
X100804Y002613
T00
M30
