; NON-PLATED HOLES START AT T1
; THROUGH (PLATED) HOLES START AT T100
M48
INCH
T1C0.236220
T2C0.322834
%
T1
X081803Y011831
X054551Y011826
X070301Y017876
X081801Y017876
X011053Y011831
X104301Y017876
X019043Y011831
X004041Y017876
X057551Y017876
X023041Y051376
X038301Y017876
X007291Y051376
X063301Y017876
X070303Y011831
X026543Y011831
X096803Y011831
X085051Y051376
X004043Y011831
X104303Y011831
X063303Y011831
X088813Y011831
X096801Y017876
X045301Y017876
X026541Y017876
X011051Y017876
X088811Y017876
X051551Y017876
X038303Y011831
X045303Y011831
X100802Y051376
X019041Y017876
T2
X007292Y024578
X063304Y045363
X022986Y035077
X048304Y024613
X085063Y005562
X007330Y035124
X045304Y045363
X007317Y045318
X072304Y045363
X041871Y005547
X072304Y024613
X036304Y035113
X054621Y005547
X023075Y024602
X100747Y035064
X036304Y024613
X054304Y045363
X060304Y024613
X085091Y035112
X072304Y035113
X036304Y045363
X007302Y005574
X100805Y045363
X100732Y005598
X023043Y045376
X022971Y005611
X048304Y035113
X060304Y035113
X085078Y045305
X100836Y024590
X085053Y024565
X066871Y005547
T00
M30
