G04 MADE WITH FRITZING*
G04 WWW.FRITZING.ORG*
G04 DOUBLE SIDED*
G04 HOLES PLATED*
G04 CONTOUR ON CENTER OF CONTOUR VECTOR*
%ASAXBY*%
%FSLAX23Y23*%
%MOIN*%
%OFA0B0*%
%SFA1.0B1.0*%
%ADD10C,0.049370*%
%ADD11C,0.096614*%
%ADD12C,0.135984*%
%ADD13C,0.085000*%
%ADD14C,0.080000*%
%ADD15C,0.092000*%
%ADD16C,0.084000*%
%ADD17C,0.403700*%
%ADD18C,0.085433*%
%ADD19C,0.134033*%
%ADD20C,0.084667*%
%ADD21C,0.084695*%
%ADD22C,0.175354*%
%ADD23R,0.085000X0.085000*%
%ADD24R,0.092000X0.092000*%
%ADD25R,0.080000X0.079972*%
%ADD26C,0.000100*%
%ADD27C,0.030000*%
%ADD28R,0.001000X0.001000*%
%LNMASK1*%
G90*
G70*
G54D10*
X6428Y4656D03*
X7047Y4670D03*
X7617Y4784D03*
X7454Y4921D03*
X7376Y4692D03*
X7453Y3996D03*
X7584Y4097D03*
X7613Y4557D03*
X7941Y4680D03*
X8217Y4966D03*
X4214Y4629D03*
X4202Y4307D03*
X3662Y4801D03*
X3818Y4692D03*
X3333Y3946D03*
G54D11*
X162Y329D03*
X161Y459D03*
G54D10*
X804Y762D03*
X799Y1128D03*
X3131Y358D03*
X3234Y211D03*
G54D12*
X363Y4388D03*
X4013Y4298D03*
X6486Y3589D03*
X10489Y3415D03*
X9301Y1409D03*
X7960Y4517D03*
X3573Y1529D03*
X5455Y1527D03*
X5073Y2773D03*
X3030Y5361D03*
X3480Y161D03*
X1521Y1379D03*
X7280Y1521D03*
X10680Y161D03*
X10680Y5361D03*
X2725Y3417D03*
X130Y5361D03*
X130Y161D03*
X7380Y161D03*
G54D10*
X8230Y211D03*
X10230Y386D03*
X10031Y361D03*
G54D13*
X2905Y386D03*
X2905Y86D03*
X2805Y386D03*
X2805Y86D03*
X7980Y386D03*
X7980Y86D03*
X7880Y386D03*
X7880Y86D03*
G54D10*
X4705Y5086D03*
X4980Y4961D03*
X6105Y1536D03*
G54D13*
X3255Y4386D03*
X3255Y4686D03*
X3155Y4386D03*
X3155Y4686D03*
G54D10*
X3465Y1868D03*
X3180Y1861D03*
X4879Y4887D03*
X4655Y2786D03*
X6880Y2561D03*
X10205Y636D03*
X2429Y638D03*
X6680Y3761D03*
X7730Y886D03*
G54D14*
X8980Y2961D03*
X8980Y2761D03*
X1204Y2963D03*
X1204Y2763D03*
X9605Y2886D03*
X9605Y2686D03*
X1829Y2888D03*
X1829Y2688D03*
G54D10*
X5180Y4961D03*
G54D14*
X9430Y4286D03*
X9230Y4286D03*
X1654Y4288D03*
X1454Y4288D03*
X10556Y3211D03*
X10356Y3211D03*
X2779Y3213D03*
X2579Y3213D03*
X10556Y3611D03*
X10356Y3611D03*
X2779Y3613D03*
X2579Y3613D03*
X8230Y3636D03*
X8030Y3636D03*
X454Y3638D03*
X254Y3638D03*
G54D10*
X5555Y4636D03*
G54D15*
X4955Y4786D03*
X4657Y4786D03*
G54D13*
X5055Y4661D03*
X5155Y4661D03*
X5055Y4661D03*
X5155Y4661D03*
X4979Y4498D03*
X4882Y4475D03*
X4979Y4498D03*
X4882Y4475D03*
G54D10*
X8524Y1712D03*
X754Y1663D03*
G54D16*
X4893Y4241D03*
X4987Y4276D03*
X5080Y4311D03*
X4893Y4241D03*
X4987Y4276D03*
X5080Y4311D03*
G54D10*
X10030Y1636D03*
X2254Y1638D03*
X9955Y1761D03*
X2179Y1763D03*
G54D14*
X8855Y636D03*
X8855Y436D03*
X1079Y638D03*
X1079Y438D03*
X9730Y636D03*
X9730Y436D03*
X1954Y638D03*
X1954Y438D03*
X8730Y211D03*
X8930Y211D03*
X954Y213D03*
X1154Y213D03*
X9180Y1061D03*
X9380Y1061D03*
X1404Y1063D03*
X1604Y1063D03*
X9655Y211D03*
X9855Y211D03*
X1879Y213D03*
X2079Y213D03*
G54D13*
X9530Y761D03*
X9830Y761D03*
X1754Y763D03*
X2054Y763D03*
X8705Y761D03*
X9005Y761D03*
X929Y763D03*
X1229Y763D03*
G54D10*
X5180Y3986D03*
G54D13*
X8714Y912D03*
X9014Y912D03*
X929Y912D03*
X1229Y912D03*
X9530Y911D03*
X9830Y911D03*
X1754Y913D03*
X2054Y913D03*
G54D10*
X5205Y3886D03*
X3605Y3661D03*
X3605Y3761D03*
X5005Y3961D03*
G54D12*
X10075Y3506D03*
X2299Y3508D03*
X8505Y2457D03*
X729Y2458D03*
X10084Y2459D03*
X2308Y2460D03*
X8509Y3511D03*
X733Y3512D03*
X8506Y556D03*
X730Y557D03*
X10073Y560D03*
X2297Y561D03*
X8508Y4531D03*
X732Y4532D03*
G54D10*
X5030Y3861D03*
G54D12*
X10081Y4536D03*
X2304Y4538D03*
G54D10*
X5980Y1511D03*
X3830Y1461D03*
G54D13*
X3830Y2761D03*
X3730Y2761D03*
X3630Y2761D03*
X4555Y2636D03*
X4455Y2636D03*
X4355Y2636D03*
X4480Y811D03*
X4380Y811D03*
X4280Y811D03*
G54D10*
X3605Y3861D03*
X4630Y3236D03*
X3255Y3011D03*
X3480Y2961D03*
X3630Y3011D03*
X3444Y1245D03*
X3710Y1440D03*
X3555Y4011D03*
X3380Y3861D03*
X5030Y1036D03*
X8955Y2036D03*
X1179Y2038D03*
X8555Y1386D03*
X654Y1663D03*
G54D14*
X9180Y2936D03*
X9380Y2936D03*
X1404Y2938D03*
X1604Y2938D03*
G54D13*
X7905Y4136D03*
X7905Y3836D03*
X129Y4138D03*
X129Y3838D03*
X10656Y4111D03*
X10656Y3811D03*
X2879Y4113D03*
X2879Y3813D03*
G54D12*
X7230Y2461D03*
X6030Y2461D03*
X4830Y2461D03*
X7230Y4536D03*
X6030Y3511D03*
X5462Y555D03*
X4187Y555D03*
X6687Y555D03*
X3630Y2461D03*
X4830Y3511D03*
X6330Y4536D03*
X3630Y4536D03*
X4530Y4536D03*
X5430Y4536D03*
X7230Y3511D03*
X3630Y3511D03*
G54D10*
X7630Y261D03*
X3430Y461D03*
X3630Y261D03*
G54D11*
X9280Y86D03*
X1504Y88D03*
X9280Y5411D03*
X1504Y5413D03*
G54D10*
X9380Y3136D03*
X1604Y3138D03*
G54D13*
X9130Y2836D03*
X9430Y2836D03*
X9130Y2736D03*
X9430Y2736D03*
X9130Y2636D03*
X9430Y2636D03*
X9130Y2536D03*
X9430Y2536D03*
X9130Y2436D03*
X9430Y2436D03*
X9130Y2336D03*
X9430Y2336D03*
X9130Y2236D03*
X9430Y2236D03*
X1354Y2838D03*
X1654Y2838D03*
X1354Y2738D03*
X1654Y2738D03*
X1354Y2638D03*
X1654Y2638D03*
X1354Y2538D03*
X1654Y2538D03*
X1354Y2438D03*
X1654Y2438D03*
X1354Y2338D03*
X1654Y2338D03*
X1354Y2238D03*
X1654Y2238D03*
X9130Y2136D03*
X9430Y2136D03*
X1354Y2138D03*
X1654Y2138D03*
X9030Y2236D03*
X9030Y2336D03*
X1254Y2238D03*
X1254Y2338D03*
G54D14*
X9905Y3236D03*
X9905Y3036D03*
X2129Y3238D03*
X2129Y3038D03*
X8730Y3236D03*
X8730Y3036D03*
X954Y3238D03*
X954Y3038D03*
X8580Y1836D03*
X8580Y2036D03*
X804Y1838D03*
X804Y2038D03*
X7882Y1286D03*
X7882Y1486D03*
X105Y1136D03*
X105Y1336D03*
X8655Y1486D03*
X8455Y1486D03*
X10678Y1299D03*
X10678Y1499D03*
X10231Y1486D03*
X10431Y1486D03*
X605Y1486D03*
X805Y1486D03*
X2980Y1261D03*
X2980Y1061D03*
X2454Y1488D03*
X2654Y1488D03*
X9630Y2111D03*
X9830Y2111D03*
X1854Y2113D03*
X2054Y2113D03*
G54D13*
X9981Y2686D03*
X9881Y2686D03*
X9781Y2686D03*
X2204Y2688D03*
X2104Y2688D03*
X2004Y2688D03*
X8680Y2761D03*
X8762Y2704D03*
X8844Y2647D03*
X904Y2763D03*
X986Y2705D03*
X1068Y2648D03*
X9830Y2286D03*
X9730Y2286D03*
X9630Y2286D03*
X2054Y2288D03*
X1954Y2288D03*
X1854Y2288D03*
X8855Y2086D03*
X8855Y2186D03*
X8855Y2286D03*
X1079Y2088D03*
X1079Y2188D03*
X1079Y2288D03*
G54D10*
X3405Y4986D03*
X6055Y386D03*
X5155Y3186D03*
X4805Y2886D03*
G54D13*
X9130Y4811D03*
X9430Y4811D03*
X9130Y4711D03*
X9430Y4711D03*
X9130Y4611D03*
X9430Y4611D03*
X9130Y4511D03*
X9430Y4511D03*
X1354Y4813D03*
X1654Y4813D03*
X1354Y4713D03*
X1654Y4713D03*
X1354Y4613D03*
X1654Y4613D03*
X1354Y4513D03*
X1654Y4513D03*
X9130Y961D03*
X9430Y961D03*
X9130Y861D03*
X9430Y861D03*
X9130Y761D03*
X9430Y761D03*
X9130Y661D03*
X9430Y661D03*
X1354Y963D03*
X1654Y963D03*
X1354Y863D03*
X1654Y863D03*
X1354Y763D03*
X1654Y763D03*
X1354Y663D03*
X1654Y663D03*
X10256Y3036D03*
X10556Y3036D03*
X10256Y2936D03*
X10556Y2936D03*
X10256Y2836D03*
X10556Y2836D03*
X10256Y2736D03*
X10556Y2736D03*
X2479Y3038D03*
X2779Y3038D03*
X2479Y2938D03*
X2779Y2938D03*
X2479Y2838D03*
X2779Y2838D03*
X2479Y2738D03*
X2779Y2738D03*
X8055Y3036D03*
X8355Y3036D03*
X8055Y2936D03*
X8355Y2936D03*
X8055Y2836D03*
X8355Y2836D03*
X8055Y2736D03*
X8355Y2736D03*
X279Y3038D03*
X579Y3038D03*
X279Y2938D03*
X579Y2938D03*
X279Y2838D03*
X579Y2838D03*
X279Y2738D03*
X579Y2738D03*
X9130Y4186D03*
X9430Y4186D03*
X9130Y4086D03*
X9430Y4086D03*
X9130Y3986D03*
X9430Y3986D03*
X9130Y3886D03*
X9430Y3886D03*
X1354Y4188D03*
X1654Y4188D03*
X1354Y4088D03*
X1654Y4088D03*
X1354Y3988D03*
X1654Y3988D03*
X1354Y3888D03*
X1654Y3888D03*
X9480Y3036D03*
X9480Y3336D03*
X1704Y3038D03*
X1704Y3338D03*
X8930Y3536D03*
X8930Y3236D03*
X1154Y3538D03*
X1154Y3238D03*
G54D10*
X4930Y3036D03*
G54D13*
X9655Y3536D03*
X9655Y3236D03*
X1879Y3538D03*
X1879Y3238D03*
X9105Y3036D03*
X9105Y3336D03*
X1329Y3038D03*
X1329Y3338D03*
X10131Y3911D03*
X10431Y3911D03*
X2354Y3913D03*
X2654Y3913D03*
X10131Y4111D03*
X10431Y4111D03*
X2354Y4113D03*
X2654Y4113D03*
X8330Y1486D03*
X8030Y1486D03*
X455Y1486D03*
X155Y1486D03*
X8486Y837D03*
X8186Y837D03*
X684Y835D03*
X384Y835D03*
X7930Y586D03*
X7930Y886D03*
X154Y588D03*
X154Y888D03*
X10581Y611D03*
X10581Y911D03*
X2804Y563D03*
X2804Y863D03*
X10271Y834D03*
X9971Y834D03*
X2508Y818D03*
X2208Y818D03*
X10707Y1919D03*
X10707Y1619D03*
X2930Y1686D03*
X2930Y1386D03*
X8005Y2511D03*
X8005Y2211D03*
X229Y2513D03*
X229Y2213D03*
X10581Y2511D03*
X10581Y2211D03*
X2804Y2513D03*
X2804Y2213D03*
X10031Y2786D03*
X10031Y3086D03*
X2254Y2788D03*
X2254Y3088D03*
X8605Y2861D03*
X8605Y3161D03*
X829Y2863D03*
X829Y3163D03*
X8480Y2736D03*
X8480Y3036D03*
X704Y2738D03*
X704Y3038D03*
X10131Y2736D03*
X10131Y3036D03*
X2354Y2738D03*
X2354Y3038D03*
X10431Y2511D03*
X10431Y2211D03*
X2654Y2513D03*
X2654Y2213D03*
X9818Y2868D03*
X9745Y3159D03*
X2042Y2869D03*
X1969Y3160D03*
X9518Y2582D03*
X9780Y2436D03*
X1742Y2584D03*
X2004Y2438D03*
X8155Y2511D03*
X8155Y2211D03*
X379Y2513D03*
X379Y2213D03*
X8814Y2844D03*
X8882Y3136D03*
X1038Y2845D03*
X1106Y3137D03*
G54D10*
X5155Y3411D03*
G54D13*
X8805Y2411D03*
X9018Y2623D03*
X1029Y2413D03*
X1241Y2625D03*
X9505Y1486D03*
X9805Y1486D03*
X1729Y1488D03*
X2029Y1488D03*
X8763Y1465D03*
X9063Y1465D03*
X1005Y1486D03*
X1305Y1486D03*
X9205Y1886D03*
X9205Y1586D03*
X1429Y1888D03*
X1429Y1588D03*
X9355Y1586D03*
X9355Y1886D03*
X1579Y1588D03*
X1579Y1888D03*
X8995Y4907D03*
X8695Y4907D03*
X1219Y4909D03*
X919Y4909D03*
X8067Y5361D03*
X8067Y5061D03*
X379Y5363D03*
X379Y5063D03*
X8880Y5061D03*
X8880Y5361D03*
X1104Y5063D03*
X1104Y5363D03*
X10411Y5018D03*
X10411Y5318D03*
X2629Y5063D03*
X2629Y5363D03*
X9730Y5361D03*
X9730Y5061D03*
X1954Y5363D03*
X1954Y5063D03*
X9895Y4907D03*
X9595Y4907D03*
X2103Y4909D03*
X1803Y4909D03*
X9930Y4811D03*
X9630Y4811D03*
X2154Y4813D03*
X1854Y4813D03*
X9930Y4236D03*
X9930Y3936D03*
X2154Y4238D03*
X2154Y3938D03*
X10131Y3811D03*
X10431Y3811D03*
X2354Y3813D03*
X2654Y3813D03*
X9830Y4236D03*
X9830Y3936D03*
X2054Y4238D03*
X2054Y3938D03*
X10131Y4011D03*
X10431Y4011D03*
X2354Y4013D03*
X2654Y4013D03*
X10406Y4361D03*
X10406Y4661D03*
X2629Y4363D03*
X2629Y4663D03*
X9634Y4300D03*
X9355Y4411D03*
X1858Y4301D03*
X1579Y4413D03*
X8105Y4036D03*
X8405Y4036D03*
X329Y4038D03*
X629Y4038D03*
X8155Y4686D03*
X8155Y4386D03*
X124Y4644D03*
X124Y4344D03*
X8924Y4308D03*
X9205Y4411D03*
X1148Y4309D03*
X1429Y4413D03*
G54D10*
X7055Y2661D03*
G54D13*
X8955Y4811D03*
X8655Y4811D03*
X1179Y4813D03*
X879Y4813D03*
X8705Y4236D03*
X8705Y3936D03*
X929Y4238D03*
X929Y3938D03*
X8405Y3836D03*
X8105Y3836D03*
X629Y3838D03*
X329Y3838D03*
X8405Y3936D03*
X8105Y3936D03*
X629Y3938D03*
X329Y3938D03*
X8605Y4236D03*
X8605Y3936D03*
X829Y4238D03*
X829Y3938D03*
X9430Y3761D03*
X9130Y3761D03*
X1654Y3763D03*
X1354Y3763D03*
X8280Y3461D03*
X8280Y3161D03*
X504Y3463D03*
X504Y3163D03*
X8155Y3461D03*
X8155Y3161D03*
X379Y3463D03*
X379Y3163D03*
X9430Y3661D03*
X9130Y3661D03*
X1654Y3663D03*
X1354Y3663D03*
X8105Y4136D03*
X8405Y4136D03*
X329Y4138D03*
X629Y4138D03*
G54D17*
X8180Y1186D03*
X404Y1188D03*
X9680Y1186D03*
X1904Y1188D03*
X10431Y1186D03*
X2654Y1188D03*
X10431Y1786D03*
X2654Y1788D03*
X10081Y5136D03*
X2304Y5138D03*
X9680Y1786D03*
X1904Y1788D03*
X8180Y1786D03*
X404Y1788D03*
G54D18*
X10455Y486D03*
X10580Y486D03*
X10580Y286D03*
X10455Y286D03*
X280Y286D03*
X280Y461D03*
X405Y286D03*
X405Y461D03*
G54D17*
X8505Y5136D03*
X729Y5138D03*
X8881Y1787D03*
X1105Y1788D03*
X8880Y1187D03*
X1104Y1187D03*
G54D14*
X9555Y3861D03*
X9555Y3661D03*
X1779Y3863D03*
X1779Y3663D03*
X9755Y3786D03*
X9955Y3786D03*
X1979Y3788D03*
X2179Y3788D03*
X9655Y3986D03*
X9655Y4186D03*
X1879Y3988D03*
X1879Y4188D03*
X9530Y4186D03*
X9530Y3986D03*
X1754Y4188D03*
X1754Y3988D03*
X8905Y4011D03*
X8905Y4211D03*
X1129Y4013D03*
X1129Y4213D03*
X9030Y4211D03*
X9030Y4011D03*
X1254Y4213D03*
X1254Y4013D03*
X8630Y3786D03*
X8830Y3786D03*
X854Y3788D03*
X1054Y3788D03*
G54D19*
X10076Y3317D03*
X10076Y3706D03*
G54D20*
X9780Y3611D03*
X9780Y3511D03*
G54D21*
X9780Y3411D03*
G54D19*
X2300Y3318D03*
X2300Y3707D03*
G54D20*
X2004Y3613D03*
X2004Y3513D03*
G54D21*
X2004Y3413D03*
G54D19*
X10076Y4342D03*
X10076Y4731D03*
G54D20*
X9780Y4636D03*
X9780Y4536D03*
G54D21*
X9780Y4436D03*
G54D19*
X2300Y4343D03*
X2300Y4732D03*
G54D20*
X2004Y4638D03*
X2004Y4538D03*
G54D21*
X2004Y4438D03*
G54D19*
X8700Y557D03*
X8311Y557D03*
G54D20*
X8405Y261D03*
X8505Y261D03*
G54D21*
X8605Y261D03*
G54D19*
X923Y558D03*
X535Y558D03*
G54D20*
X629Y263D03*
X729Y263D03*
G54D21*
X829Y263D03*
G54D19*
X10275Y557D03*
X9886Y557D03*
G54D20*
X9980Y261D03*
X10080Y261D03*
G54D21*
X10181Y261D03*
G54D19*
X2498Y558D03*
X2110Y558D03*
G54D20*
X2204Y263D03*
X2304Y263D03*
G54D21*
X2404Y263D03*
G54D19*
X10275Y2457D03*
X9886Y2457D03*
G54D20*
X9980Y2161D03*
X10080Y2161D03*
G54D21*
X10181Y2161D03*
G54D19*
X2498Y2458D03*
X2110Y2458D03*
G54D20*
X2204Y2163D03*
X2304Y2163D03*
G54D21*
X2404Y2163D03*
G54D19*
X8700Y2457D03*
X8311Y2457D03*
G54D20*
X8405Y2161D03*
X8505Y2161D03*
G54D21*
X8605Y2161D03*
G54D19*
X923Y2458D03*
X535Y2458D03*
G54D20*
X629Y2163D03*
X729Y2163D03*
G54D21*
X829Y2163D03*
G54D19*
X8510Y3705D03*
X8510Y3317D03*
G54D20*
X8805Y3411D03*
X8805Y3511D03*
G54D21*
X8805Y3611D03*
G54D19*
X734Y3707D03*
X734Y3318D03*
G54D20*
X1029Y3413D03*
X1029Y3513D03*
G54D21*
X1029Y3613D03*
G54D19*
X8510Y4731D03*
X8510Y4342D03*
G54D20*
X8805Y4436D03*
X8805Y4536D03*
G54D21*
X8805Y4636D03*
G54D19*
X734Y4732D03*
X734Y4343D03*
G54D20*
X1029Y4438D03*
X1029Y4538D03*
G54D21*
X1029Y4638D03*
G54D10*
X4730Y4136D03*
G54D13*
X4180Y5211D03*
X4480Y5211D03*
X3380Y5211D03*
X3680Y5211D03*
X3380Y5111D03*
X3680Y5111D03*
X4180Y5111D03*
X4480Y5111D03*
X4080Y4786D03*
X4080Y4486D03*
X3930Y4786D03*
X3930Y4486D03*
X6980Y4111D03*
X7280Y4111D03*
X6230Y4111D03*
X6530Y4111D03*
X3855Y2961D03*
X4155Y2961D03*
X3855Y2861D03*
X4155Y2861D03*
X4255Y2961D03*
X4555Y2961D03*
X4405Y3936D03*
X4705Y3936D03*
G54D11*
X9381Y361D03*
X1605Y362D03*
G54D13*
X4230Y4136D03*
X4530Y4136D03*
G54D11*
X9180Y5137D03*
X1404Y5138D03*
G54D13*
X3630Y4136D03*
X3930Y4136D03*
G54D11*
X9106Y255D03*
X1330Y256D03*
X9455Y5243D03*
X1679Y5244D03*
G54D13*
X6380Y3411D03*
X6380Y3111D03*
G54D11*
X9126Y537D03*
X1350Y538D03*
G54D13*
X6505Y3411D03*
X6505Y3111D03*
G54D11*
X9434Y4961D03*
X1658Y4962D03*
G54D13*
X6630Y3111D03*
X6630Y3411D03*
G54D11*
X9486Y381D03*
X1710Y382D03*
G54D13*
X4405Y3411D03*
X4405Y3111D03*
G54D11*
X9075Y5117D03*
X1299Y5118D03*
G54D13*
X4530Y3411D03*
X4530Y3111D03*
X6405Y2561D03*
X6405Y2261D03*
X5130Y2561D03*
X5130Y2261D03*
X5455Y3461D03*
X5455Y3161D03*
X5705Y3461D03*
X5705Y3161D03*
X3430Y886D03*
X3730Y886D03*
X3430Y786D03*
X3730Y786D03*
X6555Y886D03*
X6855Y886D03*
X6555Y786D03*
X6855Y786D03*
X5730Y2561D03*
X5730Y2261D03*
X4030Y2561D03*
X4030Y2261D03*
X4280Y3111D03*
X4280Y3411D03*
X6930Y2061D03*
X7230Y2061D03*
X6880Y2861D03*
X7180Y2861D03*
X5079Y910D03*
X5379Y910D03*
X6330Y2061D03*
X6030Y2061D03*
X4530Y2061D03*
X4830Y2061D03*
X5805Y3061D03*
X6105Y3061D03*
X5080Y3061D03*
X4780Y3061D03*
X3930Y2061D03*
X3630Y2061D03*
X3905Y3111D03*
X3605Y3111D03*
X5905Y1261D03*
X5905Y961D03*
X5780Y536D03*
X5780Y236D03*
X3430Y686D03*
X3730Y686D03*
X6330Y811D03*
X6330Y511D03*
X7030Y861D03*
X7030Y561D03*
X5780Y961D03*
X5780Y661D03*
X7680Y3911D03*
X7380Y3911D03*
X7680Y3811D03*
X7380Y3811D03*
X7680Y3706D03*
X7380Y3706D03*
X5580Y3461D03*
X5580Y3161D03*
X5330Y3461D03*
X5330Y3161D03*
X6755Y3411D03*
X6755Y3111D03*
X6780Y2386D03*
X6780Y2086D03*
X4230Y2561D03*
X4230Y2261D03*
X3855Y811D03*
X4155Y811D03*
X5084Y815D03*
X5384Y815D03*
X5155Y1461D03*
X5155Y1161D03*
X5055Y1461D03*
X5055Y1161D03*
X5130Y561D03*
X5130Y261D03*
X4629Y933D03*
X4929Y933D03*
X4580Y561D03*
X4580Y261D03*
X4680Y561D03*
X4680Y261D03*
X4780Y561D03*
X4780Y261D03*
X6505Y2561D03*
X6505Y2261D03*
X5230Y2561D03*
X5230Y2261D03*
X5055Y2086D03*
X5355Y2086D03*
X5530Y2086D03*
X5830Y2086D03*
X5630Y2561D03*
X5630Y2261D03*
X4130Y2561D03*
X4130Y2261D03*
X4530Y3736D03*
X4830Y3736D03*
X4180Y3411D03*
X4180Y3111D03*
X4180Y1936D03*
X4180Y1636D03*
X4955Y1461D03*
X4955Y1161D03*
X6680Y1086D03*
X6680Y1386D03*
X6680Y1586D03*
X6680Y1886D03*
X4005Y3936D03*
X4305Y3936D03*
X4005Y3836D03*
X4305Y3836D03*
X4005Y3736D03*
X4305Y3736D03*
X4005Y3636D03*
X4305Y3636D03*
X5930Y811D03*
X6230Y811D03*
X5930Y711D03*
X6230Y711D03*
X5930Y611D03*
X6230Y611D03*
X5930Y511D03*
X6230Y511D03*
X3780Y5211D03*
X4080Y5211D03*
X3780Y5111D03*
X4080Y5111D03*
X3780Y5011D03*
X4080Y5011D03*
X3780Y4911D03*
X4080Y4911D03*
G54D14*
X6905Y3211D03*
X6905Y3011D03*
X5501Y810D03*
X5642Y951D03*
X6180Y361D03*
X6380Y361D03*
X5005Y561D03*
X5005Y361D03*
X4905Y561D03*
X4905Y361D03*
X4705Y786D03*
X4905Y786D03*
X4705Y686D03*
X4905Y686D03*
X6005Y911D03*
X6205Y911D03*
X6005Y1261D03*
X6005Y1061D03*
X3430Y586D03*
X3630Y586D03*
X7297Y903D03*
X7155Y761D03*
X6655Y2461D03*
X6655Y2261D03*
X5355Y2636D03*
X5355Y2436D03*
X5480Y2636D03*
X5480Y2436D03*
X4455Y2461D03*
X4455Y2261D03*
X3955Y2736D03*
X4155Y2736D03*
X4355Y2836D03*
X4555Y2836D03*
X4530Y3836D03*
X4730Y3836D03*
X4030Y3311D03*
X4030Y3111D03*
X5430Y4811D03*
X5630Y4811D03*
X3878Y5312D03*
X4078Y5312D03*
X4280Y4961D03*
X4480Y4961D03*
X4278Y5337D03*
X4478Y5337D03*
X4280Y4836D03*
X4480Y4836D03*
X3505Y4786D03*
X3505Y4986D03*
X5905Y5361D03*
X6005Y5361D03*
X6105Y5361D03*
X6205Y5361D03*
X6305Y5361D03*
X6405Y5361D03*
X6505Y5361D03*
X6605Y5361D03*
X6705Y5361D03*
X6805Y5361D03*
X6905Y5361D03*
X7005Y5361D03*
X7105Y5361D03*
X7205Y5361D03*
X7305Y5361D03*
X5905Y4761D03*
X6005Y4761D03*
X6105Y4761D03*
X6205Y4761D03*
X6305Y4761D03*
X6405Y4761D03*
X6505Y4761D03*
X6605Y4761D03*
X6705Y4761D03*
X6805Y4761D03*
X6905Y4761D03*
X7005Y4761D03*
X7105Y4761D03*
X7205Y4761D03*
X7305Y4761D03*
X5905Y5361D03*
X6005Y5361D03*
X6105Y5361D03*
X6205Y5361D03*
X6305Y5361D03*
X6405Y5361D03*
X6505Y5361D03*
X6605Y5361D03*
X6705Y5361D03*
X6805Y5361D03*
X6905Y5361D03*
X7005Y5361D03*
X7105Y5361D03*
X7205Y5361D03*
X7305Y5361D03*
X5905Y4761D03*
X6005Y4761D03*
X6105Y4761D03*
X6205Y4761D03*
X6305Y4761D03*
X6405Y4761D03*
X6505Y4761D03*
X6605Y4761D03*
X6705Y4761D03*
X6805Y4761D03*
X6905Y4761D03*
X7005Y4761D03*
X7105Y4761D03*
X7205Y4761D03*
X7305Y4761D03*
G54D22*
X5083Y5215D03*
X4905Y5361D03*
X4905Y5111D03*
G54D11*
X5380Y5143D03*
X5655Y5249D03*
X5634Y4967D03*
X5275Y5123D03*
X5480Y5417D03*
G54D17*
X7030Y1786D03*
X5755Y1786D03*
X5155Y1786D03*
X4530Y1786D03*
X7030Y1186D03*
X5455Y1186D03*
X4530Y1186D03*
X6330Y1786D03*
X3830Y1786D03*
X6330Y1186D03*
X3830Y1186D03*
G54D19*
X5650Y557D03*
X5261Y557D03*
G54D20*
X5355Y261D03*
X5455Y261D03*
G54D21*
X5555Y261D03*
G54D19*
X5625Y4532D03*
X5236Y4532D03*
G54D20*
X5330Y4236D03*
X5430Y4236D03*
G54D21*
X5530Y4236D03*
G54D19*
X3825Y4532D03*
X3436Y4532D03*
G54D20*
X3530Y4236D03*
X3630Y4236D03*
G54D21*
X3730Y4236D03*
G54D19*
X7425Y2457D03*
X7036Y2457D03*
G54D20*
X7130Y2161D03*
X7230Y2161D03*
G54D21*
X7330Y2161D03*
G54D19*
X7425Y3507D03*
X7036Y3507D03*
G54D20*
X7130Y3211D03*
X7230Y3211D03*
G54D21*
X7330Y3211D03*
G54D19*
X4725Y4532D03*
X4336Y4532D03*
G54D20*
X4430Y4236D03*
X4530Y4236D03*
G54D21*
X4630Y4236D03*
G54D19*
X7425Y4532D03*
X7036Y4532D03*
G54D20*
X7130Y4236D03*
X7230Y4236D03*
G54D21*
X7330Y4236D03*
G54D19*
X6525Y4532D03*
X6136Y4532D03*
G54D20*
X6230Y4236D03*
X6330Y4236D03*
G54D21*
X6430Y4236D03*
G54D19*
X3825Y2457D03*
X3436Y2457D03*
G54D20*
X3530Y2161D03*
X3630Y2161D03*
G54D21*
X3730Y2161D03*
G54D19*
X3825Y3507D03*
X3436Y3507D03*
G54D20*
X3530Y3211D03*
X3630Y3211D03*
G54D21*
X3730Y3211D03*
G54D19*
X5025Y2457D03*
X4636Y2457D03*
G54D20*
X4730Y2161D03*
X4830Y2161D03*
G54D21*
X4930Y2161D03*
G54D19*
X5025Y3507D03*
X4636Y3507D03*
G54D20*
X4730Y3211D03*
X4830Y3211D03*
G54D21*
X4930Y3211D03*
G54D19*
X6225Y2457D03*
X5836Y2457D03*
G54D20*
X5930Y2161D03*
X6030Y2161D03*
G54D21*
X6130Y2161D03*
G54D19*
X6225Y3507D03*
X5836Y3507D03*
G54D20*
X5930Y3211D03*
X6030Y3211D03*
G54D21*
X6130Y3211D03*
G54D19*
X4375Y557D03*
X3986Y557D03*
G54D20*
X4080Y261D03*
X4180Y261D03*
G54D21*
X4280Y261D03*
G54D19*
X6875Y557D03*
X6486Y557D03*
G54D20*
X6580Y261D03*
X6680Y261D03*
G54D21*
X6780Y261D03*
G54D23*
X2905Y386D03*
X7980Y386D03*
G54D24*
X4956Y4786D03*
G54D23*
X5055Y4661D03*
X5055Y4661D03*
X9130Y2836D03*
X1354Y2838D03*
X9130Y4811D03*
X1354Y4813D03*
X9130Y961D03*
X1354Y963D03*
X10256Y3036D03*
X2479Y3038D03*
X8055Y3036D03*
X279Y3038D03*
X9130Y4186D03*
X1354Y4188D03*
X4005Y3936D03*
X5930Y811D03*
X3780Y5211D03*
G54D25*
X5905Y5361D03*
X5905Y5361D03*
G54D26*
G36*
X5000Y4531D02*
X5012Y4477D01*
X4959Y4465D01*
X4946Y4518D01*
X5000Y4531D01*
G37*
G54D27*
X5000Y4531D02*
X5012Y4477D01*
X4959Y4465D01*
X4946Y4518D01*
X5000Y4531D01*
D02*
G54D26*
G36*
X5000Y4531D02*
X5012Y4477D01*
X4959Y4465D01*
X4946Y4518D01*
X5000Y4531D01*
G37*
G54D27*
X5000Y4531D02*
X5012Y4477D01*
X4959Y4465D01*
X4946Y4518D01*
X5000Y4531D01*
D02*
G54D28*
X4915Y4294D02*
X4918Y4294D01*
X4912Y4293D02*
X4918Y4293D01*
X4910Y4292D02*
X4919Y4292D01*
X4907Y4291D02*
X4919Y4291D01*
X4904Y4290D02*
X4919Y4290D01*
X4902Y4289D02*
X4920Y4289D01*
X4899Y4288D02*
X4920Y4288D01*
X4896Y4287D02*
X4920Y4287D01*
X4894Y4286D02*
X4921Y4286D01*
X4891Y4285D02*
X4921Y4285D01*
X4888Y4284D02*
X4922Y4284D01*
X4886Y4283D02*
X4922Y4283D01*
X4883Y4282D02*
X4922Y4282D01*
X4880Y4281D02*
X4923Y4281D01*
X4878Y4280D02*
X4923Y4280D01*
X4875Y4279D02*
X4923Y4279D01*
X4872Y4278D02*
X4924Y4278D01*
X4870Y4277D02*
X4924Y4277D01*
X4867Y4276D02*
X4925Y4276D01*
X4864Y4275D02*
X4925Y4275D01*
X4862Y4274D02*
X4925Y4274D01*
X4859Y4273D02*
X4926Y4273D01*
X4856Y4272D02*
X4926Y4272D01*
X4854Y4271D02*
X4926Y4271D01*
X4851Y4270D02*
X4927Y4270D01*
X4848Y4269D02*
X4927Y4269D01*
X4846Y4268D02*
X4928Y4268D01*
X4843Y4267D02*
X4928Y4267D01*
X4840Y4266D02*
X4928Y4266D01*
X4840Y4265D02*
X4929Y4265D01*
X4840Y4264D02*
X4929Y4264D01*
X4841Y4263D02*
X4929Y4263D01*
X4841Y4262D02*
X4930Y4262D01*
X4842Y4261D02*
X4930Y4261D01*
X4842Y4260D02*
X4931Y4260D01*
X4842Y4259D02*
X4931Y4259D01*
X4843Y4258D02*
X4931Y4258D01*
X4843Y4257D02*
X4932Y4257D01*
X4843Y4256D02*
X4932Y4256D01*
X4844Y4255D02*
X4888Y4255D01*
X4899Y4255D02*
X4932Y4255D01*
X4844Y4254D02*
X4886Y4254D01*
X4901Y4254D02*
X4933Y4254D01*
X4844Y4253D02*
X4884Y4253D01*
X4903Y4253D02*
X4933Y4253D01*
X4845Y4252D02*
X4883Y4252D01*
X4904Y4252D02*
X4934Y4252D01*
X4845Y4251D02*
X4882Y4251D01*
X4905Y4251D02*
X4934Y4251D01*
X4846Y4250D02*
X4881Y4250D01*
X4906Y4250D02*
X4934Y4250D01*
X4846Y4249D02*
X4880Y4249D01*
X4906Y4249D02*
X4935Y4249D01*
X4846Y4248D02*
X4880Y4248D01*
X4907Y4248D02*
X4935Y4248D01*
X4847Y4247D02*
X4879Y4247D01*
X4907Y4247D02*
X4935Y4247D01*
X4847Y4246D02*
X4879Y4246D01*
X4908Y4246D02*
X4936Y4246D01*
X4847Y4245D02*
X4879Y4245D01*
X4908Y4245D02*
X4936Y4245D01*
X4848Y4244D02*
X4878Y4244D01*
X4908Y4244D02*
X4937Y4244D01*
X4848Y4243D02*
X4878Y4243D01*
X4908Y4243D02*
X4937Y4243D01*
X4849Y4242D02*
X4878Y4242D01*
X4908Y4242D02*
X4937Y4242D01*
X4849Y4241D02*
X4878Y4241D01*
X4908Y4241D02*
X4938Y4241D01*
X4849Y4240D02*
X4878Y4240D01*
X4908Y4240D02*
X4938Y4240D01*
X4850Y4239D02*
X4878Y4239D01*
X4908Y4239D02*
X4938Y4239D01*
X4850Y4238D02*
X4878Y4238D01*
X4908Y4238D02*
X4939Y4238D01*
X4850Y4237D02*
X4879Y4237D01*
X4908Y4237D02*
X4939Y4237D01*
X4851Y4236D02*
X4879Y4236D01*
X4907Y4236D02*
X4940Y4236D01*
X4851Y4235D02*
X4880Y4235D01*
X4907Y4235D02*
X4940Y4235D01*
X4852Y4234D02*
X4880Y4234D01*
X4907Y4234D02*
X4940Y4234D01*
X4852Y4233D02*
X4881Y4233D01*
X4906Y4233D02*
X4941Y4233D01*
X4852Y4232D02*
X4881Y4232D01*
X4905Y4232D02*
X4941Y4232D01*
X4853Y4231D02*
X4882Y4231D01*
X4904Y4231D02*
X4941Y4231D01*
X4853Y4230D02*
X4883Y4230D01*
X4903Y4230D02*
X4942Y4230D01*
X4853Y4229D02*
X4885Y4229D01*
X4902Y4229D02*
X4942Y4229D01*
X4854Y4228D02*
X4886Y4228D01*
X4900Y4228D02*
X4943Y4228D01*
X4854Y4227D02*
X4889Y4227D01*
X4897Y4227D02*
X4943Y4227D01*
X4855Y4226D02*
X4943Y4226D01*
X4855Y4225D02*
X4944Y4225D01*
X4855Y4224D02*
X4944Y4224D01*
X4856Y4223D02*
X4944Y4223D01*
X4856Y4222D02*
X4945Y4222D01*
X4856Y4221D02*
X4945Y4221D01*
X4857Y4220D02*
X4946Y4220D01*
X4857Y4219D02*
X4946Y4219D01*
X4858Y4218D02*
X4946Y4218D01*
X4858Y4217D02*
X4947Y4217D01*
X4858Y4216D02*
X4945Y4216D01*
X4859Y4215D02*
X4943Y4215D01*
X4859Y4214D02*
X4940Y4214D01*
X4859Y4213D02*
X4937Y4213D01*
X4860Y4212D02*
X4935Y4212D01*
X4860Y4211D02*
X4932Y4211D01*
X4861Y4210D02*
X4929Y4210D01*
X4861Y4209D02*
X4927Y4209D01*
X4861Y4208D02*
X4924Y4208D01*
X4862Y4207D02*
X4921Y4207D01*
X4862Y4206D02*
X4919Y4206D01*
X4862Y4205D02*
X4916Y4205D01*
X4863Y4204D02*
X4913Y4204D01*
X4863Y4203D02*
X4911Y4203D01*
X4864Y4202D02*
X4908Y4202D01*
X4864Y4201D02*
X4905Y4201D01*
X4864Y4200D02*
X4903Y4200D01*
X4865Y4199D02*
X4900Y4199D01*
X4865Y4198D02*
X4897Y4198D01*
X4865Y4197D02*
X4895Y4197D01*
X4866Y4196D02*
X4892Y4196D01*
X4866Y4195D02*
X4889Y4195D01*
X4867Y4194D02*
X4887Y4194D01*
X4867Y4193D02*
X4884Y4193D01*
X4867Y4192D02*
X4881Y4192D01*
X4868Y4191D02*
X4879Y4191D01*
X4868Y4190D02*
X4876Y4190D01*
X4868Y4189D02*
X4873Y4189D01*
X4869Y4188D02*
X4870Y4188D01*
D02*
G04 End of Mask1*
M02*